<svg xmlns="http://www.w3.org/2000/svg" viewBox="0 0 120.48 43.05"><g data-name="Calque 2"><path d="M104.25 0v13.65L96.7 0H79v13.33A22.19 22.19 0 0059.44 0H41.77l3.69 17.67H58.8a4.14 4.14 0 014.33 3.85 4.14 4.14 0 01-4.33 3.86H47.23l3.69 17.67h7.88a22.14 22.14 0 0020.4-13.33v13.33h16.06V30.2l6.42 12.85h18.8V0zM30.48 19.38a2.09 2.09 0 11-2.1 2.09 2.13 2.13 0 012.1-2.09zm-10.79 0a2.09 2.09 0 11-2.09 2.09 2.12 2.12 0 012.09-2.09zm21.68-1.7H9.56L16.21 0h18.51zm9.55 25.37H32.09L31 39.82H20l-1.18 3.23H0l6.47-17.67h37.8z" fill="#fff" data-name="Calque 1"/></g></svg>